<svg xmlns="http://www.w3.org/2000/svg" width="18" height="18" fill="currentColor" viewBox="0 0 512 512">
  <path d="M487.4 315.7l-42.6-24.6c2.6-14.6 2.6-29.8 0-44.4l42.6-24.6c6.1-3.5 8.6-11.1 5.8-17.5l-45.3-78.5c-2.8-6.2-9.3-9.3-15.7-7.9l-50 12.5c-11.7-9.8-24.2-17.9-37.6-24.1l-7.6-51c-1.2-6.5-6.8-11.2-13.4-11.2h-90.7c-6.6 0-12.2 4.8-13.4 11.2l-7.6 51c-13.4 6.3-25.9 14.4-37.6 24.1l-50-12.5c-6.4-1.6-12.9 1.7-15.7 7.9l-45.3 78.5c-2.8 6.3-.3 14 5.8 17.5l42.6 24.6c-2.6 14.6-2.6 29.8 0 44.4l-42.6 24.6c-6.1 3.5-8.6 11.1-5.8 17.5l45.3 78.5c2.8 6.2 9.3 9.3 15.7 7.9l50-12.5c11.7 9.8 24.2 17.9 37.6 24.1l7.6 51c1.2 6.5 6.8 11.2 13.4 11.2h90.7c6.6 0 12.2-4.8 13.4-11.2l7.6-51c13.4-6.3 25.9-14.4 37.6-24.1l50 12.5c6.4 1.6 12.9-1.7 15.7-7.9l45.3-78.5c2.8-6.2.3-14-5.8-17.5zM256 336c-44.2 0-80-35.8-80-80s35.8-80 80-80 80 35.8 80 80-35.8 80-80 80z" />
</svg>
