  <svg width="20" height="20" fill="#ffffff" viewBox="0 0 640 512" xmlns="http://www.w3.org/2000/svg">
    <path d="M96 128a64 64 0 1 0 64 64 64 64 0 0 0-64-64zm448 0a64 64 0 1 0 64 64 64 64 0 0 0-64-64zm0 112c-35.3 0-64 28.7-64 64v64h128v-64c0-35.3-28.7-64-64-64zM96 240c-53 0-96 43-96 96v32a16 16 0 0 0 16 16h224a16 16 0 0 0 16-16v-32c0-53-43-96-96-96zm160-112a64 64 0 1 0-64-64 64 64 0 0 0 64 64zm48 48c-44.1 0-80 35.9-80 80v32a16 16 0 0 0 16 16h128a16 16 0 0 0 16-16v-32c0-44.1-35.9-80-80-80z" />
  </svg>